<?xml version="1.0" encoding="UTF-8"?>
<svg id="Layer_1" data-name="Layer 1" xmlns="http://www.w3.org/2000/svg" xmlns:xlink="http://www.w3.org/1999/xlink" viewBox="0 0 360 360">
  <defs>
    <style>
      .cls-1 {
        fill: url(#linear-gradient-2);
      }

      .cls-2 {
        fill: url(#linear-gradient-3);
      }

      .cls-3 {
        fill: url(#linear-gradient);
      }

      .cls-4 {
        fill: #feedef;
      }

      .cls-5 {
        fill: #fefefe;
      }
    </style>
    <linearGradient id="linear-gradient" x1="99.37" y1="190.62" x2="248.23" y2="128.56" gradientUnits="userSpaceOnUse">
      <stop offset="0" stop-color="#dbc9fc"/>
      <stop offset="0" stop-color="#bfa1fb"/>
      <stop offset=".22" stop-color="#e4c7fc"/>
      <stop offset=".52" stop-color="#cfaafc"/>
      <stop offset=".68" stop-color="#d7b7fc"/>
      <stop offset="1" stop-color="#e7cdfd"/>
    </linearGradient>
    <linearGradient id="linear-gradient-2" x1="140.51" y1="253.32" x2="251.81" y2="220.67" gradientUnits="userSpaceOnUse">
      <stop offset=".13" stop-color="#ccbcfc"/>
      <stop offset=".5" stop-color="#e1ccfc"/>
      <stop offset="1" stop-color="#d7c7fc"/>
    </linearGradient>
    <linearGradient id="linear-gradient-3" x1="99.31" y1="220.72" x2="151.61" y2="220.72" gradientUnits="userSpaceOnUse">
      <stop offset="0" stop-color="#c9acfa"/>
      <stop offset="1" stop-color="#b194fc"/>
    </linearGradient>
  </defs>
  <g>
    <path class="cls-3" d="m225.17,105.45h-90.34c-19.61,0-35.51,15.9-35.51,35.51v49.53s25.66,32.38,52.3,51.4c45.44-16.99,109.08-51.4,109.08-51.4v-49.53c0-19.61-15.9-35.51-35.52-35.51Z"/>
    <path class="cls-1" d="m260.69,190.49v28.54c0,19.61-15.9,35.52-35.52,35.52h-90.34c-5.59,0-10.88-1.29-15.58-3.6,8.09-.84,19.5-4.25,32.37-9.06,45.44-16.99,109.08-51.4,109.08-51.4Z"/>
    <path class="cls-2" d="m151.61,241.89c-12.87,4.81-24.28,8.23-32.37,9.06-11.8-5.77-19.93-17.9-19.93-31.92v-28.54s25.66,32.38,52.3,51.4Z"/>
  </g>
  <g>
    <path class="cls-5" d="m176.9,129.31c.62,1.14.93,2.63,1.09,3.92.76,6.24,2.38,12.34,4.32,18.31,1,3.1,2.14,6.25,4.26,8.72,3.43,4,8.83,5.57,13.91,6.95,3.89,1.06,7.79,2.12,11.68,3.17,1.94.53,7.84,1.66,4.44,4.93-.83.8-2.01,1.11-3.13,1.38-6.18,1.51-12.37,3.03-18.55,4.54-1.88.46-3.79.93-5.45,1.94-2.5,1.52-4.16,4.09-5.43,6.72-3.7,7.61-4.85,16.18-5.97,24.57-.19,1.39-.48,2.96-1.68,3.69-1.36.84-3.26.05-4.17-1.26-.92-1.31-1.12-2.98-1.31-4.57-.8-6.57-1.92-13.16-4.34-19.31-1.39-3.54-3.3-7.04-6.37-9.29-2.21-1.62-4.86-2.49-7.49-3.24-5.22-1.5-10.53-2.66-15.9-3.47-1.54-.23-3.16-.47-4.39-1.43-1.23-.96-1.82-2.92-.8-4.1.58-.67,1.48-.91,2.34-1.13,5.2-1.3,10.4-2.6,15.6-3.9,3.15-.79,6.38-1.61,9.08-3.42,3.67-2.47,5.98-6.51,7.67-10.6,2.46-5.94,3.92-12.28,4.3-18.7.08-1.34.12-2.73.65-3.96s1.7-2.31,3.04-2.29c1.2.02,2.03.78,2.6,1.83Z"/>
    <path class="cls-5" d="m136.67,193.29c.24.43.35,1,.41,1.49.29,2.37.91,4.69,1.64,6.97.38,1.18.81,2.38,1.62,3.32,1.31,1.52,3.36,2.12,5.29,2.65,1.48.4,2.96.81,4.44,1.21.74.2,2.98.63,1.69,1.88-.32.3-.76.42-1.19.53-2.35.58-4.71,1.15-7.06,1.73-.72.18-1.44.36-2.07.74-.95.58-1.58,1.56-2.07,2.56-1.41,2.9-1.85,6.16-2.27,9.35-.07.53-.18,1.13-.64,1.41-.52.32-1.24.02-1.59-.48s-.43-1.13-.5-1.74c-.3-2.5-.73-5.01-1.65-7.35-.53-1.35-1.26-2.68-2.42-3.54-.84-.62-1.85-.95-2.85-1.23-1.99-.57-4.01-1.01-6.05-1.32-.59-.09-1.2-.18-1.67-.54s-.69-1.11-.3-1.56c.22-.25.56-.35.89-.43,1.98-.5,3.96-.99,5.94-1.49,1.2-.3,2.43-.61,3.45-1.3,1.4-.94,2.27-2.48,2.92-4.03.94-2.26,1.49-4.68,1.64-7.12.03-.51.05-1.04.25-1.51.2-.47.65-.88,1.16-.87.46,0,.77.3.99.7Z"/>
    <path class="cls-5" d="m232.59,133.02c.24.43.35,1,.41,1.49.29,2.37.91,4.69,1.64,6.97.38,1.18.81,2.38,1.62,3.32,1.31,1.52,3.36,2.12,5.29,2.65,1.48.4,2.96.81,4.44,1.21.74.2,2.98.63,1.69,1.88-.32.3-.76.42-1.19.53-2.35.58-4.71,1.15-7.06,1.73-.72.18-1.44.36-2.07.74-.95.58-1.58,1.56-2.07,2.56-1.41,2.9-1.85,6.16-2.27,9.35-.07.53-.18,1.13-.64,1.41-.52.32-1.24.02-1.59-.48s-.43-1.13-.5-1.74c-.3-2.5-.73-5.01-1.65-7.35-.53-1.35-1.26-2.68-2.42-3.54-.84-.62-1.85-.95-2.85-1.23-1.99-.57-4.01-1.01-6.05-1.32-.59-.09-1.2-.18-1.67-.54s-.69-1.11-.3-1.56c.22-.25.56-.35.89-.43,1.98-.5,3.96-.99,5.94-1.49,1.2-.3,2.43-.61,3.45-1.3,1.4-.94,2.27-2.48,2.92-4.03.94-2.26,1.49-4.68,1.64-7.12.03-.51.05-1.04.25-1.51.2-.47.65-.88,1.16-.87.46,0,.77.3.99.7Z"/>
    <polygon class="cls-4" points="209.03 172.86 182.07 180.64 174.49 207.66 166.72 180.7 139.69 173.12 166.66 165.35 174.23 138.32 182.01 165.29 209.03 172.86"/>
  </g>
</svg>