<svg xmlns="http://www.w3.org/2000/svg" viewBox="0 0 200 200" fill="none">
  <rect x="35" y="40" width="130" height="110" rx="12" fill="white" stroke="#BBDEFB" stroke-width="2"/>
  <rect x="35" y="40" width="130" height="30" rx="12" fill="#42A5F5"/>
  <rect x="35" y="58" width="130" height="12" fill="#42A5F5"/>
  <circle cx="60" cy="55" r="4" fill="white" opacity="0.8"/>
  <circle cx="140" cy="55" r="4" fill="white" opacity="0.8"/>
  <text x="100" y="56" text-anchor="middle" font-size="11" font-weight="700" fill="white">36 MONTHS</text>
  <g transform="translate(50, 85)">
    <rect width="28" height="24" rx="4" fill="#E3F2FD" stroke="#BBDEFB" stroke-width="1"/>
    <text x="14" y="16" text-anchor="middle" font-size="11" font-weight="700" fill="#1565C0">1</text>
  </g>
  <g transform="translate(86, 85)">
    <rect width="28" height="24" rx="4" fill="#E3F2FD" stroke="#BBDEFB" stroke-width="1"/>
    <text x="14" y="16" text-anchor="middle" font-size="11" font-weight="700" fill="#1565C0">2</text>
  </g>
  <g transform="translate(122, 85)">
    <rect width="28" height="24" rx="4" fill="#E3F2FD" stroke="#BBDEFB" stroke-width="1"/>
    <text x="14" y="16" text-anchor="middle" font-size="11" font-weight="700" fill="#1565C0">3</text>
  </g>
  <g transform="translate(50, 118)">
    <rect width="28" height="24" rx="4" fill="#E3F2FD" stroke="#BBDEFB" stroke-width="1"/>
    <text x="14" y="16" text-anchor="middle" font-size="11" font-weight="700" fill="#1565C0">4</text>
  </g>
  <g transform="translate(86, 118)">
    <rect width="28" height="24" rx="4" fill="#E3F2FD" stroke="#BBDEFB" stroke-width="1"/>
    <text x="14" y="16" text-anchor="middle" font-size="11" font-weight="700" fill="#1565C0">5</text>
  </g>
  <g transform="translate(122, 118)">
    <rect width="28" height="24" rx="4" fill="#42A5F5"/>
    <text x="14" y="16" text-anchor="middle" font-size="11" font-weight="700" fill="white">6</text>
  </g>
</svg>
